<svg viewBox="0 0 1010 1010" xml:space="preserve" xmlns="http://www.w3.org/2000/svg"><path d="M799.764 420.447c115.943 0 210.236-94.317 210.236-210.21C1010 94.292 915.707 0 799.764 0 683.87 0 589.578 94.293 589.578 210.236c0 40.538 11.786 78.315 31.71 110.47l-323.22 205.649c-31.66-28.11-73.234-45.421-118.852-45.421C80.436 480.934 0 561.319 0 660.125s80.435 179.24 179.216 179.24c64.654 0 121.269-34.57 152.782-86.008l273.164 109.286C605.605 943.966 671.838 1010 753.26 1010c81.718 0 148.146-66.478 148.146-148.147 0-81.716-66.428-148.195-148.146-148.195-64.95 0-119.642 42.264-139.615 100.556L351.38 709.318c4.488-15.658 7.053-32.105 7.053-49.193 0-35.68-10.603-68.92-28.703-96.882l321.445-204.515c38.023 38.122 90.643 61.72 148.59 61.72zm-46.505 341.32c55.184 0 100.063 44.902 100.063 100.086 0 55.162-44.879 100.064-100.063 100.064s-100.064-44.902-100.064-100.064c0-55.184 44.88-100.086 100.064-100.086zm-574.043 29.465c-72.298 0-131.083-58.785-131.083-131.107 0-72.273 58.785-131.059 131.083-131.059s131.132 58.786 131.132 131.059c0 72.322-58.834 131.107-131.132 131.107zM799.764 48.084c89.46 0 162.152 72.741 162.152 162.152 0 89.41-72.691 162.103-162.152 162.103-89.362 0-162.053-72.693-162.053-162.103 0-89.41 72.691-162.152 162.053-162.152z" fill="#0b0c0d" class="fill-1a1a1a"></path></svg>