<svg viewBox="0 0 24 24" xmlns="http://www.w3.org/2000/svg"><path d="M23 .5A17.871 17.871 0 0 0 6.857 10.786L.5 23.5" fill="none" stroke="#0b0c0d" stroke-linecap="round" stroke-linejoin="round" class="stroke-000000"></path><path d="M3 18.5a11.742 11.742 0 0 0 10.867-7.295c.233-.569.482-1.1.738-1.6l-1.4-1.4A.414.414 0 0 1 13.5 7.5h2.329a14.418 14.418 0 0 1 7.218-5.872A.655.655 0 0 0 23.5 1v0a.5.5 0 0 0-.5-.5M10.106 16.106 8.5 14.5M12.136 14.136 10.5 12.5" fill="none" stroke="#0b0c0d" stroke-linecap="round" stroke-linejoin="round" class="stroke-000000"></path></svg>